<svg width="31" height="31" viewBox="0 0 31 31" fill="none" xmlns="http://www.w3.org/2000/svg">
<path d="M15.3799 4.69262C15.4335 4.69276 15.4872 4.69289 15.5425 4.69303C18.5327 4.705 21.1082 5.86792 23.25 7.936C23.291 7.9738 23.332 8.01161 23.3742 8.05055C24.7577 9.35696 25.7262 11.3678 26.102 13.206C26.1252 13.3167 26.1252 13.3167 26.1488 13.4296C26.2823 14.1018 26.3227 14.7536 26.319 15.438C26.3189 15.4904 26.3189 15.5429 26.3188 15.5969C26.3154 16.5026 26.2205 17.3525 25.978 18.228C25.9657 18.2746 25.9535 18.3212 25.9409 18.3692C25.7143 19.2209 25.3757 20.0745 24.924 20.832C24.7092 20.7522 24.5252 20.6593 24.3343 20.5328C24.2809 20.4976 24.2275 20.4624 24.1725 20.4262C24.1156 20.3883 24.0587 20.3504 24.0001 20.3113C23.9408 20.2722 23.8816 20.233 23.8206 20.1927C23.6315 20.0676 23.4427 19.9422 23.2539 19.8168C23.127 19.7328 23.0002 19.6488 22.8733 19.5649C22.4197 19.2647 21.9664 18.9639 21.514 18.662C21.6006 18.389 21.7063 18.1303 21.8201 17.8676C22.4208 16.3856 22.4006 14.5173 21.793 13.0435C21.7623 12.9744 21.7316 12.9052 21.7 12.834C21.6827 12.7949 21.6653 12.7558 21.6474 12.7155C21.1207 11.5483 20.313 10.5435 19.22 9.858C19.1726 9.82643 19.1252 9.79486 19.0764 9.76234C18.6341 9.4789 18.1587 9.29945 17.67 9.114C17.6189 9.0921 17.5679 9.0702 17.5152 9.04764C16.3756 8.62449 14.7904 8.64657 13.6322 8.99388C13.5876 9.00719 13.543 9.02051 13.497 9.03423C12.9995 9.19071 12.544 9.41788 12.09 9.672C12.0281 9.70645 11.9663 9.74089 11.9025 9.77638C10.3656 10.6946 9.37901 12.2438 8.91105 13.9386C8.5815 15.3826 8.75111 16.9511 9.362 18.29C9.39005 18.3536 9.4181 18.4172 9.44701 18.4828C10.1891 20.0721 11.5393 21.224 13.1675 21.8414C13.365 21.9054 13.5626 21.9595 13.764 22.01C13.83 22.0285 13.896 22.0469 13.964 22.0659C15.2734 22.3866 16.6223 22.2248 17.8863 21.8097C18.042 21.762 18.042 21.762 18.166 21.762C18.2109 21.8471 18.2109 21.8471 18.2566 21.9339C18.3968 22.1996 18.5371 22.4652 18.6775 22.7307C18.7153 22.8024 18.7153 22.8024 18.7539 22.8755C19.1026 23.5353 19.4544 24.1932 19.818 24.845C19.8459 24.8953 19.8738 24.9457 19.9025 24.9976C19.9386 25.0622 19.9386 25.0622 19.9754 25.1282C20.026 25.234 20.026 25.234 20.026 25.358C19.4072 25.6048 18.7877 25.8493 18.1466 26.0322C18.1068 26.0441 18.067 26.0559 18.026 26.068C17.2207 26.2877 16.3798 26.3118 15.5504 26.3074C15.4794 26.3071 15.4794 26.3071 15.4069 26.3068C13.2233 26.2948 11.1587 25.6953 9.362 24.428C9.26693 24.3612 9.26693 24.3612 9.16994 24.2931C8.70636 23.9563 8.28778 23.5828 7.874 23.188C7.82485 23.1421 7.77569 23.0963 7.72505 23.049C6.1852 21.5714 5.23187 19.4926 4.836 17.422C4.81882 17.3338 4.81882 17.3338 4.80129 17.2438C4.69843 16.6575 4.68471 16.078 4.68487 15.4845C4.68481 15.4329 4.68474 15.3812 4.68467 15.328C4.68708 14.0209 4.93002 12.8154 5.394 11.594C5.43008 11.4967 5.43008 11.4967 5.4669 11.3973C5.99494 10.0546 6.80789 8.90153 7.812 7.874C7.85148 7.83068 7.89096 7.78736 7.93164 7.74273C9.80809 5.73285 12.6805 4.68057 15.3799 4.69262Z" fill="black"/>
<path d="M16.864 16.678C17.1234 16.6433 17.2548 16.7138 17.4594 16.87C17.5138 16.9131 17.5138 16.9131 17.5692 16.957C17.6518 17.0199 17.7344 17.0826 17.8172 17.1452C17.8626 17.1796 17.908 17.2139 17.9548 17.2494C18.2348 17.457 18.5224 17.654 18.8092 17.8521C18.9326 17.9376 19.056 18.0231 19.1793 18.1086C19.2389 18.1499 19.2984 18.1911 19.3597 18.2337C19.6007 18.4011 19.8407 18.5701 20.0802 18.7395C20.1224 18.7693 20.1646 18.7991 20.208 18.8299C20.2917 18.8891 20.3754 18.9483 20.4591 19.0075C20.6724 19.1586 20.8859 19.3095 21.0994 19.4603C21.1639 19.5058 21.1639 19.5058 21.2298 19.5523C21.5719 19.7938 21.9148 20.034 22.258 20.274C22.7738 20.6347 23.2885 20.9971 23.8024 21.3605C23.9353 21.4544 24.0683 21.5481 24.2013 21.6419C24.4207 21.7965 24.64 21.9514 24.8592 22.1064C24.9439 22.1663 25.0287 22.2261 25.1135 22.2858C25.2339 22.3707 25.3541 22.4557 25.4742 22.5409C25.51 22.566 25.5458 22.5912 25.5827 22.6171C25.6741 22.682 25.7641 22.7489 25.854 22.816C25.8925 22.8447 25.931 22.8734 25.9707 22.9029C26.0869 23.0691 26.0741 23.1771 26.04 23.374C25.9223 23.5126 25.8167 23.6187 25.6796 23.7344C25.6429 23.7667 25.6062 23.7991 25.5683 23.8325C25.2946 24.0719 25.0139 24.303 24.7305 24.5307C24.5231 24.6995 24.3205 24.8733 24.118 25.048C23.8092 25.3142 23.4969 25.5751 23.1793 25.8308C23.0438 25.9433 22.9126 26.0576 22.7821 26.1756C22.744 26.2096 22.7059 26.2436 22.6667 26.2787C22.5925 26.3452 22.5189 26.4124 22.4461 26.4804C22.2104 26.6902 22.0299 26.7995 21.7 26.784C21.5159 26.5875 21.3949 26.3806 21.2798 26.1386C21.2484 26.073 21.217 26.0075 21.1847 25.94C21.1348 25.8341 21.1348 25.8341 21.0839 25.7261C21.0481 25.6509 21.0122 25.5758 20.9764 25.5006C20.7009 24.9219 20.4325 24.3398 20.1642 23.7577C19.855 23.0901 19.5325 22.4291 19.2092 21.7682C18.8724 21.0793 18.5434 20.3877 18.2237 19.6906C18.0322 19.2748 17.8354 18.8622 17.6342 18.4511C17.5977 18.3764 17.5977 18.3764 17.5604 18.3003C17.4401 18.0544 17.3192 17.8088 17.1977 17.5635C17.1539 17.4743 17.11 17.3851 17.0662 17.2958C17.0457 17.2548 17.0252 17.2138 17.0041 17.1716C16.9175 16.9944 16.864 16.8781 16.864 16.678Z" fill="black"/>
</svg>
