<svg width="32" height="32" viewBox="0 0 32 32" fill="none" xmlns="http://www.w3.org/2000/svg">
<rect width="32" height="32" rx="16" fill="white"/>
<path d="M15.876 4.844C15.9314 4.84414 15.9868 4.84428 16.0438 4.84442C19.1305 4.85677 21.7891 6.0572 24 8.192C24.0423 8.23102 24.0846 8.27005 24.1283 8.31025C25.5563 9.6588 26.556 11.7345 26.944 13.632C26.9679 13.7462 26.9679 13.7462 26.9923 13.8628C27.1302 14.5567 27.1718 15.2295 27.168 15.936C27.1679 15.9901 27.1679 16.0443 27.1678 16.1001C27.1643 17.035 27.0664 17.9122 26.816 18.816C26.8034 18.8641 26.7907 18.9122 26.7777 18.9617C26.5438 19.841 26.1942 20.7221 25.728 21.504C25.5062 21.4217 25.3163 21.3257 25.1193 21.1952C25.0642 21.1588 25.009 21.1225 24.9523 21.0851C24.8935 21.046 24.8348 21.0068 24.7743 20.9665C24.7131 20.9261 24.652 20.8857 24.589 20.8441C24.3938 20.715 24.1989 20.5855 24.004 20.456C23.8731 20.3693 23.7421 20.2826 23.6111 20.196C23.1429 19.8861 22.675 19.5757 22.208 19.264C22.2974 18.9822 22.4065 18.7152 22.524 18.444C23.1441 16.9142 23.1232 14.9856 22.496 13.4643C22.4643 13.3929 22.4326 13.3215 22.4 13.248C22.3821 13.2076 22.3642 13.1673 22.3458 13.1257C21.802 11.9208 20.9682 10.8836 19.84 10.176C19.7911 10.1434 19.7422 10.1108 19.6918 10.0773C19.2352 9.78467 18.7445 9.59943 18.24 9.408C18.1873 9.3854 18.1346 9.36279 18.0803 9.3395C16.9038 8.9027 15.2675 8.92549 14.072 9.284C14.0259 9.29775 13.9798 9.31149 13.9323 9.32566C13.4189 9.48719 12.9486 9.72168 12.48 9.984C12.4161 10.0196 12.3523 10.0551 12.2865 10.0918C10.7 11.0395 9.68156 12.6387 9.1985 14.3883C8.85832 15.8788 9.0334 17.498 9.664 18.88C9.69296 18.9457 9.72191 19.0113 9.75175 19.079C10.5178 20.7196 11.9116 21.9087 13.5922 22.546C13.7962 22.6121 14.0001 22.6679 14.208 22.72C14.2761 22.7391 14.3443 22.7581 14.4145 22.7778C15.7661 23.1088 17.1585 22.9417 18.4633 22.5133C18.624 22.464 18.624 22.464 18.752 22.464C18.7983 22.5518 18.7983 22.5518 18.8456 22.6414C18.9903 22.9157 19.1351 23.1898 19.28 23.464C19.3191 23.5379 19.3191 23.5379 19.3589 23.6134C19.7188 24.2945 20.0819 24.9736 20.4573 25.6464C20.4861 25.6984 20.5149 25.7504 20.5445 25.804C20.5818 25.8707 20.5818 25.8707 20.6198 25.9388C20.672 26.048 20.672 26.048 20.672 26.176C20.0333 26.4308 19.3938 26.6832 18.732 26.872C18.6909 26.8842 18.6499 26.8964 18.6075 26.9089C17.7762 27.1357 16.9081 27.1606 16.052 27.156C15.9787 27.1557 15.9787 27.1557 15.9039 27.1555C13.6499 27.143 11.5186 26.5242 9.664 25.216C9.56587 25.1471 9.56587 25.1471 9.46575 25.0768C8.98721 24.7291 8.55513 24.3435 8.128 23.936C8.07726 23.8886 8.02652 23.8413 7.97425 23.7925C6.38473 22.2672 5.40064 20.1214 4.992 17.984C4.97426 17.893 4.97426 17.893 4.95617 17.8001C4.85 17.1949 4.83583 16.5967 4.836 15.984C4.83593 15.9307 4.83586 15.8774 4.83579 15.8225C4.83828 14.4732 5.08906 13.2288 5.568 11.968C5.60525 11.8675 5.60525 11.8675 5.64325 11.765C6.18833 10.3789 7.0275 9.18867 8.064 8.128C8.10475 8.08329 8.14551 8.03857 8.1875 7.9925C10.1245 5.91778 13.0895 4.83156 15.876 4.844Z" fill="black"/>
<path d="M17.408 17.216C17.6758 17.1802 17.8114 17.253 18.0226 17.4142C18.0787 17.4587 18.0787 17.4587 18.136 17.504C18.2212 17.5689 18.3065 17.6337 18.392 17.6983C18.4389 17.7337 18.4857 17.7692 18.534 17.8058C18.8231 18.0202 19.1199 18.2234 19.416 18.428C19.5433 18.5162 19.6707 18.6045 19.798 18.6928C19.8595 18.7354 19.9209 18.778 19.9843 18.8218C20.233 18.9947 20.4807 19.1691 20.728 19.344C20.7715 19.3748 20.815 19.4056 20.8599 19.4373C20.9463 19.4984 21.0327 19.5595 21.119 19.6207C21.3393 19.7766 21.5596 19.9323 21.78 20.088C21.8466 20.1351 21.8466 20.1351 21.9146 20.1831C22.2678 20.4323 22.6218 20.6803 22.976 20.928C23.5085 21.3004 24.0397 21.6744 24.5703 22.0495C24.7074 22.1464 24.8447 22.2432 24.982 22.34C25.2085 22.4997 25.4349 22.6595 25.6612 22.8195C25.7486 22.8813 25.8361 22.9431 25.9236 23.0047C26.0479 23.0923 26.1719 23.1801 26.296 23.268C26.3329 23.294 26.3699 23.3199 26.4079 23.3467C26.5023 23.4137 26.5952 23.4828 26.688 23.552C26.7278 23.5816 26.7675 23.6112 26.8085 23.6418C26.9285 23.8133 26.9153 23.9248 26.88 24.128C26.7585 24.2711 26.6495 24.3806 26.508 24.5C26.4701 24.5334 26.4322 24.5668 26.3931 24.6013C26.1106 24.8484 25.8208 25.0869 25.5283 25.322C25.3142 25.4963 25.105 25.6757 24.896 25.856C24.5772 26.1308 24.2549 26.4001 23.927 26.664C23.7872 26.7802 23.6517 26.8981 23.517 27.02C23.4777 27.0551 23.4384 27.0902 23.3979 27.1264C23.3213 27.195 23.2453 27.2644 23.1701 27.3346C22.9269 27.5512 22.7405 27.664 22.4 27.648C22.2099 27.4451 22.0851 27.2316 21.9663 26.9818C21.9339 26.9141 21.9015 26.8465 21.8681 26.7768C21.8166 26.6675 21.8166 26.6675 21.764 26.556C21.727 26.4784 21.6901 26.4008 21.653 26.3232C21.3687 25.7258 21.0916 25.125 20.8146 24.5241C20.4955 23.8349 20.1626 23.1527 19.8289 22.4704C19.4812 21.7593 19.1416 21.0453 18.8116 20.3258C18.6139 19.8966 18.4108 19.4706 18.203 19.0463C18.1653 18.9692 18.1653 18.9692 18.1269 18.8906C18.0026 18.6368 17.8779 18.3833 17.7525 18.1301C17.7072 18.038 17.662 17.9459 17.6168 17.8538C17.5956 17.8114 17.5744 17.7691 17.5526 17.7255C17.4632 17.5426 17.408 17.4226 17.408 17.216Z" fill="black"/>
</svg>
