<svg width="37" height="37" viewBox="0 0 37 37" fill="none" xmlns="http://www.w3.org/2000/svg">
<g clip-path="url(#clip0_2039_13)">
<path d="M0 0C12.21 0 24.42 0 37 0C37 12.21 37 24.42 37 37C24.79 37 12.58 37 0 37C0 24.79 0 12.58 0 0Z" fill="url(#paint0_radial_2039_13)"/>
<path d="M18.3566 5.60088C18.4207 5.60103 18.4847 5.60119 18.5507 5.60136C22.1197 5.61564 25.1936 7.00364 27.75 9.472C27.7989 9.51712 27.8479 9.56224 27.8983 9.60873C29.5495 11.168 30.7054 13.568 31.154 15.762C31.1816 15.8941 31.1816 15.8941 31.2098 16.0289C31.3692 16.8312 31.4174 17.6091 31.413 18.426C31.4129 18.4886 31.4128 18.5512 31.4128 18.6157C31.4087 19.6967 31.2955 20.711 31.006 21.756C30.9914 21.8116 30.9768 21.8672 30.9617 21.9245C30.6913 22.9411 30.2871 23.9599 29.748 24.864C29.4916 24.7688 29.272 24.6579 29.0441 24.5069C28.9804 24.4649 28.9167 24.4229 28.851 24.3796C28.7831 24.3344 28.7152 24.2891 28.6452 24.2425C28.5745 24.1958 28.5038 24.1491 28.431 24.1009C28.2053 23.9517 27.98 23.802 27.7546 23.6523C27.6032 23.552 27.4518 23.4518 27.3004 23.3516C26.759 22.9933 26.218 22.6344 25.678 22.274C25.7814 21.9481 25.9075 21.6394 26.0434 21.3259C26.7603 19.5571 26.7362 17.3271 26.011 15.568C25.9744 15.4855 25.9377 15.403 25.9 15.318C25.8793 15.2713 25.8586 15.2247 25.8373 15.1766C25.2086 13.7834 24.2445 12.5842 22.94 11.766C22.8834 11.7283 22.8269 11.6906 22.7686 11.6518C22.2407 11.3135 21.6733 11.0993 21.09 10.878C21.029 10.8519 20.9681 10.8257 20.9053 10.7988C19.545 10.2937 17.6531 10.3201 16.2707 10.7346C16.2175 10.7505 16.1642 10.7664 16.1093 10.7828C15.5156 10.9696 14.9718 11.2407 14.43 11.544C14.3562 11.5851 14.2823 11.6262 14.2063 11.6686C12.3719 12.7645 11.1943 14.6136 10.6358 16.6364C10.2424 18.3599 10.4449 20.232 11.174 21.83C11.2075 21.9059 11.241 21.9819 11.2755 22.0601C12.1612 23.957 13.7727 25.3319 15.716 26.0688C15.9518 26.1452 16.1876 26.2098 16.428 26.27C16.5068 26.292 16.5856 26.3141 16.6668 26.3368C18.2296 26.7195 19.8395 26.5264 21.3481 26.0309C21.534 25.974 21.534 25.974 21.682 25.974C21.7355 26.0755 21.7355 26.0755 21.7902 26.1791C21.9575 26.4962 22.125 26.8133 22.2925 27.1303C22.3377 27.2157 22.3377 27.2157 22.3837 27.303C22.7999 28.0906 23.2197 28.8757 23.6538 29.6537C23.687 29.7138 23.7203 29.7739 23.7546 29.8359C23.7977 29.913 23.7977 29.913 23.8416 29.9917C23.902 30.118 23.902 30.118 23.902 30.266C23.1635 30.5606 22.4241 30.8524 21.6589 31.0708C21.6114 31.0848 21.5639 31.0989 21.515 31.1134C20.5537 31.3756 19.55 31.4045 18.5601 31.3991C18.4754 31.3988 18.4754 31.3988 18.3889 31.3985C15.7827 31.3841 13.3184 30.6686 11.174 29.156C11.0605 29.0763 11.0605 29.0763 10.9448 28.995C10.3915 28.593 9.89187 28.1472 9.398 27.676C9.33933 27.6212 9.28067 27.5665 9.22023 27.5101C7.38234 25.7465 6.24449 23.2654 5.772 20.794C5.75149 20.6887 5.75149 20.6887 5.73057 20.5813C5.60781 19.8815 5.59143 19.1899 5.59162 18.4815C5.59155 18.4199 5.59147 18.3582 5.59139 18.2947C5.59426 16.7346 5.88422 15.2958 6.438 13.838C6.48107 13.7218 6.48107 13.7218 6.52501 13.6033C7.15525 12.0006 8.12555 10.6244 9.324 9.398C9.37112 9.3463 9.41825 9.2946 9.4668 9.24133C11.7064 6.84243 15.1348 5.58649 18.3566 5.60088Z" fill="url(#paint1_linear_2039_13)"/>
<path d="M20.128 19.906C20.4376 19.8646 20.5944 19.9488 20.8386 20.1352C20.9035 20.1866 20.9035 20.1866 20.9698 20.239C21.0682 20.3141 21.1669 20.3889 21.2658 20.4636C21.3199 20.5046 21.3741 20.5457 21.4299 20.5879C21.7642 20.8358 22.1074 21.0709 22.4498 21.3074C22.597 21.4094 22.7442 21.5114 22.8914 21.6135C22.9625 21.6627 23.0336 21.712 23.1068 21.7628C23.3944 21.9627 23.6808 22.1643 23.9668 22.3665C24.0171 22.4021 24.0674 22.4377 24.1192 22.4743C24.2191 22.545 24.319 22.6157 24.4189 22.6864C24.6735 22.8667 24.9283 23.0468 25.1831 23.2267C25.2602 23.2812 25.2602 23.2812 25.3387 23.3367C25.7471 23.6248 26.1564 23.9116 26.566 24.198C27.1817 24.6285 27.7959 25.061 28.4094 25.4947C28.568 25.6068 28.7267 25.7187 28.8854 25.8306C29.1473 26.0152 29.4091 26.2001 29.6707 26.3851C29.7718 26.4565 29.873 26.5279 29.9742 26.5992C30.1178 26.7005 30.2613 26.802 30.4048 26.9036C30.4475 26.9336 30.4902 26.9636 30.5342 26.9946C30.6433 27.0721 30.7507 27.1519 30.858 27.232C30.904 27.2662 30.95 27.3005 30.9973 27.3358C31.136 27.5341 31.1208 27.663 31.08 27.898C30.9396 28.0634 30.8135 28.1901 30.6499 28.3281C30.606 28.3668 30.5622 28.4054 30.517 28.4452C30.1904 28.7309 29.8553 29.0068 29.517 29.2786C29.2695 29.4801 29.0276 29.6875 28.786 29.896C28.4174 30.2137 28.0447 30.5251 27.6656 30.8302C27.5039 30.9646 27.3473 31.1009 27.1915 31.2419C27.1461 31.2825 27.1006 31.3231 27.0538 31.3649C26.9652 31.4442 26.8774 31.5245 26.7905 31.6057C26.5092 31.8561 26.2937 31.9865 25.9 31.968C25.6803 31.7334 25.5359 31.4865 25.3985 31.1976C25.361 31.1194 25.3236 31.0412 25.285 30.9607C25.2254 30.8343 25.2254 30.8343 25.1646 30.7054C25.1219 30.6156 25.0791 30.5259 25.0363 30.4362C24.7076 29.7454 24.3872 29.0508 24.0669 28.356C23.6979 27.5591 23.313 26.7703 22.9271 25.9814C22.5251 25.1591 22.1325 24.3337 21.7509 23.5017C21.5223 23.0054 21.2875 22.5129 21.0472 22.0222C21.0037 21.9332 21.0037 21.9332 20.9592 21.8423C20.8155 21.5488 20.6713 21.2557 20.5263 20.9629C20.474 20.8564 20.4217 20.7499 20.3694 20.6434C20.3449 20.5945 20.3204 20.5456 20.2952 20.4951C20.1918 20.2836 20.128 20.1448 20.128 19.906Z" fill="url(#paint2_linear_2039_13)"/>
</g>
<defs>
<radialGradient id="paint0_radial_2039_13" cx="0" cy="0" r="1" gradientUnits="userSpaceOnUse" gradientTransform="translate(18 19) rotate(40.5559) scale(68.4416 116.092)">
<stop stop-color="#4E0272"/>
<stop offset="1" stop-color="#B969E1"/>
</radialGradient>
<linearGradient id="paint1_linear_2039_13" x1="13.5" y1="24" x2="27.5071" y2="13.6556" gradientUnits="userSpaceOnUse">
<stop stop-color="#3753BC"/>
<stop offset="1" stop-color="#B969E1"/>
</linearGradient>
<linearGradient id="paint2_linear_2039_13" x1="23.5" y1="27" x2="26" y2="24.5" gradientUnits="userSpaceOnUse">
<stop stop-color="#3753BC"/>
<stop offset="1" stop-color="#B969E1"/>
</linearGradient>
<clipPath id="clip0_2039_13">
<rect width="37" height="37" fill="white"/>
</clipPath>
</defs>
</svg>
